<svg width="34" height="35" viewBox="0 0 34 35" fill="none" xmlns="http://www.w3.org/2000/svg">
<path d="M23.6149 3.40724C25.6214 3.28183 27.6001 3.97854 29.0911 5.34411C30.4567 6.83508 31.1534 8.81375 31.0419 10.8342V23.8489C31.1673 25.8693 30.4567 27.848 29.1051 29.339C27.6141 30.7045 25.6214 31.4013 23.6149 31.2758H10.6002C8.57966 31.4013 6.60097 30.7045 5.10999 29.339C3.74442 27.848 3.0477 25.8693 3.17311 23.8489V10.8342C3.0477 8.81375 3.74442 6.83508 5.10999 5.34411C6.60097 3.97854 8.57966 3.28183 10.6002 3.40724H23.6149ZM23.2526 9.77521C22.3887 8.91129 20.9952 8.91129 20.1313 9.77521L19.1977 10.7227C19.0583 10.8621 19.0583 11.099 19.1977 11.2383C19.1977 11.2383 19.225 11.2655 19.2737 11.3139L19.6165 11.6548C19.8147 11.852 20.0622 12.0984 20.3107 12.3461L21.1533 13.1883C21.3291 13.3649 21.4458 13.4833 21.4551 13.4957C21.6083 13.6629 21.7059 13.8858 21.7059 14.1367C21.7059 14.6383 21.3018 15.0563 20.7862 15.0563C20.5493 15.0563 20.3264 14.9588 20.1731 14.8055L17.846 12.4924C17.7346 12.3809 17.5395 12.3809 17.428 12.4924L10.7813 19.1391C10.3215 19.5989 10.0567 20.212 10.0428 20.8669L9.95917 24.1693C9.95917 24.3505 10.0149 24.5177 10.1403 24.6431C10.2657 24.7685 10.4329 24.8382 10.6141 24.8382H13.8887C14.5575 24.8382 15.1985 24.5734 15.6862 24.0997L25.0641 14.694C25.9141 13.8301 25.9141 12.4367 25.0641 11.5867L23.2526 9.77521Z" fill="white"/>
</svg>
