<svg width="25" height="25" viewBox="0 0 25 25" fill="none" xmlns="http://www.w3.org/2000/svg">
<g clip-path="url(#clip0_426_1204)">
<path d="M12.5 0.5C19.1274 0.5 24.5 5.87258 24.5 12.5C24.5 19.1274 19.1274 24.5 12.5 24.5C5.87258 24.5 0.5 19.1274 0.5 12.5C0.5 5.87258 5.87258 0.5 12.5 0.5Z" fill="#FFE000" stroke="black"/>
<path d="M19.1667 8.02079C18.698 8.28121 18.125 8.43746 17.6042 8.48954C18.1771 8.12496 18.5938 7.55204 18.8021 6.87496C18.2813 7.18746 17.7084 7.44788 17.0313 7.60413C16.5105 7.03121 15.8334 6.66663 15.0521 6.66663C13.5417 6.66663 12.2917 7.96871 12.2917 9.63538C12.2917 9.84371 12.2917 10.1041 12.3438 10.3125C10.0521 10.2083 8.02087 9.01038 6.66671 7.23954C6.40629 7.65621 6.30212 8.17704 6.30212 8.74996C6.30212 9.79163 6.77087 10.677 7.50004 11.1979C7.03129 11.1979 6.61462 11.0416 6.25004 10.8333V10.8854C6.25004 12.2916 7.18754 13.4895 8.43754 13.802C8.22921 13.8541 7.96879 13.9062 7.70837 13.9062C7.55212 13.9062 7.34379 13.9062 7.18754 13.8541C7.55212 15.052 8.54171 15.8854 9.73962 15.8854C8.80212 16.6666 7.60421 17.1354 6.35421 17.1354C6.14587 17.1354 5.93754 17.1354 5.67712 17.0833C6.87504 17.9166 8.33337 18.4375 9.89587 18.4375C14.948 18.4375 17.7084 13.9583 17.7084 10.052C17.7084 9.94788 17.7084 9.79163 17.7084 9.68746C18.3334 9.16663 18.8021 8.64579 19.1667 8.02079Z" fill="black"/>
</g>
<defs>
<clipPath id="clip0_426_1204">
<rect width="25" height="25" fill="white"/>
</clipPath>
</defs>
</svg>
